<svg width="24" height="25" viewBox="0 0 24 25" fill="none" xmlns="http://www.w3.org/2000/svg">
<path d="M2.06153 12.848C1.97819 12.6235 1.97819 12.3765 2.06153 12.152C2.87323 10.1839 4.25104 8.50104 6.0203 7.3169C7.78955 6.13276 9.87057 5.50062 11.9995 5.50062C14.1285 5.50062 16.2095 6.13276 17.9788 7.3169C19.748 8.50104 21.1258 10.1839 21.9375 12.152C22.0209 12.3765 22.0209 12.6235 21.9375 12.848C21.1258 14.8161 19.748 16.499 17.9788 17.6831C16.2095 18.8672 14.1285 19.4994 11.9995 19.4994C9.87057 19.4994 7.78955 18.8672 6.0203 17.6831C4.25104 16.499 2.87323 14.8161 2.06153 12.848Z" stroke="black" stroke-opacity="0.4" stroke-width="2" stroke-linecap="round" stroke-linejoin="round"/>
<path d="M12 15.5C13.6569 15.5 15 14.1569 15 12.5C15 10.8431 13.6569 9.5 12 9.5C10.3431 9.5 9 10.8431 9 12.5C9 14.1569 10.3431 15.5 12 15.5Z" stroke="black" stroke-opacity="0.4" stroke-width="2" stroke-linecap="round" stroke-linejoin="round"/>
</svg>
