<svg width="25" height="25" viewBox="0 0 25 25" fill="none" xmlns="http://www.w3.org/2000/svg">
<path d="M17.0883 7.90651H17.0964M8.62712 4.28027H16.6854C18.9107 4.28027 20.7146 6.08419 20.7146 8.30943V16.3677C20.7146 18.593 18.9107 20.3969 16.6854 20.3969H8.62712C6.40188 20.3969 4.59796 18.593 4.59796 16.3677V8.30943C4.59796 6.08419 6.40188 4.28027 8.62712 4.28027ZM15.8796 11.8309C15.9791 12.5016 15.8645 13.1865 15.5522 13.7883C15.24 14.3901 14.7459 14.8781 14.1403 15.1829C13.5347 15.4877 12.8484 15.5938 12.1791 15.4861C11.5097 15.3784 10.8913 15.0624 10.4119 14.583C9.9325 14.1036 9.61646 13.4852 9.50875 12.8158C9.40104 12.1464 9.50714 11.4601 9.81195 10.8545C10.1168 10.2489 10.6048 9.75488 11.2066 9.44262C11.8084 9.13037 12.4933 9.01581 13.1639 9.11526C13.848 9.2167 14.4814 9.53547 14.9704 10.0245C15.4594 10.5135 15.7782 11.1468 15.8796 11.8309Z" stroke="white" stroke-width="1.61166" stroke-linecap="round" stroke-linejoin="round"/>
</svg>
