<svg width="18" height="24" viewBox="0 0 18 24" fill="none" xmlns="http://www.w3.org/2000/svg">
<path fill-rule="evenodd" clip-rule="evenodd" d="M9 6.75C7.75725 6.75 6.75 7.75725 6.75 9C6.75 10.2428 7.75725 11.25 9 11.25C10.2428 11.25 11.25 10.2428 11.25 9C11.25 7.75725 10.2428 6.75 9 6.75ZM9 12.75C6.92925 12.75 5.25 11.0715 5.25 9C5.25 6.9285 6.92925 5.25 9 5.25C11.0708 5.25 12.75 6.9285 12.75 9C12.75 11.0715 11.0708 12.75 9 12.75ZM9 0C4.02975 0 0 4.02975 0 9C0 12.7635 7.50375 24.0082 9 24C10.473 24.0082 18 12.7125 18 9C18 4.02975 13.9703 0 9 0Z" fill="black"/>
</svg>
