<svg width="24" height="24" viewBox="0 0 24 24" fill="none" xmlns="http://www.w3.org/2000/svg">
<path fill-rule="evenodd" clip-rule="evenodd" d="M11.25 13.5H12.75V12H11.25V13.5ZM11.25 19.5H12.75V18H11.25V19.5ZM17.25 13.5H18.75V12H17.25V13.5ZM17.25 19.5H18.75V18H17.25V19.5ZM5.25 19.5H6.75V18H5.25V19.5ZM21.75 6H2.25V4.5C2.25 3.672 2.922 3 3.75 3H6.75V3.75C6.75 4.16475 7.08525 4.5 7.5 4.5C7.91475 4.5 8.25 4.16475 8.25 3.75V3H15.75V3.75C15.75 4.16475 16.0852 4.5 16.5 4.5C16.9147 4.5 17.25 4.16475 17.25 3.75V3H20.25C21.078 3 21.75 3.672 21.75 4.5V6ZM20.25 13.5C20.25 14.328 19.578 15 18.75 15H17.25C16.422 15 15.75 14.328 15.75 13.5V12C15.75 11.172 16.422 10.5 17.25 10.5H18.75C19.578 10.5 20.25 11.172 20.25 12V13.5ZM20.25 19.5C20.25 20.328 19.578 21 18.75 21H17.25C16.422 21 15.75 20.328 15.75 19.5V18C15.75 17.172 16.422 16.5 17.25 16.5H18.75C19.578 16.5 20.25 17.172 20.25 18V19.5ZM14.25 13.5C14.25 14.328 13.578 15 12.75 15H11.25C10.422 15 9.75 14.328 9.75 13.5V12C9.75 11.172 10.422 10.5 11.25 10.5H12.75C13.578 10.5 14.25 11.172 14.25 12V13.5ZM14.25 19.5C14.25 20.328 13.578 21 12.75 21H11.25C10.422 21 9.75 20.328 9.75 19.5V18C9.75 17.172 10.422 16.5 11.25 16.5H12.75C13.578 16.5 14.25 17.172 14.25 18V19.5ZM8.25 13.5C8.25 14.328 7.578 15 6.75 15H5.25C4.422 15 3.75 14.328 3.75 13.5V12C3.75 11.172 4.422 10.5 5.25 10.5H6.75C7.578 10.5 8.25 11.172 8.25 12V13.5ZM8.25 19.5C8.25 20.328 7.578 21 6.75 21H5.25C4.422 21 3.75 20.328 3.75 19.5V18C3.75 17.172 4.422 16.5 5.25 16.5H6.75C7.578 16.5 8.25 17.172 8.25 18V19.5ZM20.25 1.5H17.25V0.75C17.25 0.336 16.9147 0 16.5 0C16.0852 0 15.75 0.336 15.75 0.75V1.5H8.25V0.75C8.25 0.336 7.91475 0 7.5 0C7.08525 0 6.75 0.336 6.75 0.75V1.5H3.75C2.09325 1.5 0.75 2.84325 0.75 4.5V21C0.75 22.6567 2.09325 24 3.75 24H20.25C21.9067 24 23.25 22.6567 23.25 21V4.5C23.25 2.84325 21.9067 1.5 20.25 1.5ZM5.25 13.5H6.75V12H5.25V13.5Z" fill="black"/>
</svg>
