<svg width="24" height="24" viewBox="0 0 24 24" fill="none" xmlns="http://www.w3.org/2000/svg">
<path d="M14.5 20H1V15.5C1.79565 15.5 2.55871 15.1839 3.12132 14.6213C3.68393 14.0587 4 13.2956 4 12.5C4 11.7044 3.68393 10.9413 3.12132 10.3787C2.55871 9.81607 1.79565 9.5 1 9.5V5H14.5V8.75H16V5H22V9.5C21.2044 9.5 20.4413 9.81607 19.8787 10.3787C19.3161 10.9413 19 11.7044 19 12.5C19 13.2956 19.3161 14.0587 19.8787 14.6213C20.4413 15.1839 21.2044 15.5 22 15.5V20H16V16.25H14.5V20ZM14.5 10.25V14.75H16V10.25H14.5Z" fill="black"/>
</svg>
