<svg width="26" height="24" viewBox="0 0 26 24" fill="none" xmlns="http://www.w3.org/2000/svg">
<path d="M5.37563 15.8973C4.8127 13.2407 4.8127 10.4956 5.37563 7.839C5.4496 7.56922 5.59251 7.32333 5.79032 7.12552C5.98812 6.92772 6.23401 6.7848 6.5038 6.71084C10.8258 5.99482 15.2362 5.99482 19.5583 6.71084C19.8281 6.7848 20.0739 6.92772 20.2717 7.12552C20.4696 7.32333 20.6125 7.56922 20.6864 7.839C21.2494 10.4956 21.2494 13.2407 20.6864 15.8973C20.6125 16.1671 20.4696 16.413 20.2717 16.6108C20.0739 16.8086 19.8281 16.9515 19.5583 17.0255C15.2362 17.7416 10.8258 17.7416 6.5038 17.0255C6.23401 16.9515 5.98812 16.8086 5.79032 16.6108C5.59251 16.413 5.4496 16.1671 5.37563 15.8973Z" stroke="white" stroke-width="1.61166" stroke-linecap="round" stroke-linejoin="round"/>
<path d="M11.4194 14.2857L15.4485 11.8682L11.4194 9.45067V14.2857Z" stroke="white" stroke-width="1.61166" stroke-linecap="round" stroke-linejoin="round"/>
</svg>
